<svg xmlns="http://www.w3.org/2000/svg" viewBox="0 0 1000 303.8">
    <path d="M155.5,18.7l-3.2,25.6H92V236.5H62V44.3H0V18.7H155.5Z" fill="#5b5b5b"/>
    <path d="M302.7,79.7q12.8,13.6,12.8,37.3V236.5H286.4V121.1q0-17.7-6.8-25t-19.8-7.3a37.4,37.4,0,0,0-23.1,7.6q-10.1,7.6-19,21.5V236.5H188.7V3.2L217.8,0V93q19.6-26.9,49.3-26.9Q289.9,66.1,302.7,79.7Z"
          fill="#5b5b5b"/>
    <path d="M489.7,212.6a21.2,21.2,0,0,0,10.4,7.4l-6.6,20.2q-13-1.6-20.9-7.3T461,215.3q-16.8,25-49.6,25-24.7,0-38.9-13.9T358.2,190q0-26.6,19.1-40.8T431.6,135h25.6V122.7q0-17.7-8.5-25.3t-26.2-7.6q-18.3,0-44.9,8.9l-7.3-21.2q31-11.4,57.5-11.4,29.4,0,43.9,14.4t14.5,40.9v76.2Q486.2,207.7,489.7,212.6Zm-32.6-20.1V154.3H435.3q-46.2,0-46.2,34.1,0,14.9,7.3,22.4t21.5,7.6Q442.9,218.5,457.2,192.5Z"
          fill="#5b5b5b"/>
    <path d="M660,79.7q12.8,13.6,12.8,37.3V236.5H643.7V121.1q0-17.7-6.6-25t-19.6-7.3a37.9,37.9,0,0,0-23.4,7.6q-10.1,7.6-19,21.8V236.5H546V69.9h25l2.5,24.7a65.8,65.8,0,0,1,22-20.9,56.7,56.7,0,0,1,28.9-7.6Q647.2,66.1,660,79.7Z"
          fill="#5b5b5b"/>
    <path d="M865.6,77.5a89.3,89.3,0,0,1-20.9,4.1q-11.4.9-27.8,0.9,29.4,13.3,29.4,42,0,25-17.1,40.8t-46.5,15.8a68.6,68.6,0,0,1-21.2-3.2,17.9,17.9,0,0,0-6,6.8,18.7,18.7,0,0,0-2.2,8.7q0,13.6,21.8,13.6h26.6q16.8,0,29.7,6t20.1,16.4a41.1,41.1,0,0,1,7.1,23.7q0,24.3-19.9,37.5t-58.2,13.1q-26.9,0-42.5-5.5t-22.3-16.6q-6.6-11.1-6.6-28.5h26.2q0,10.1,3.8,16t13.6,8.9q9.8,3,27.8,3,26.2,0,37.5-6.5t11.2-19.4q0-11.7-8.9-17.7t-24.7-6H769.5q-21.2,0-32.1-9t-10.9-22.6a29.4,29.4,0,0,1,4.7-15.8,46.3,46.3,0,0,1,13.6-13.6q-14.5-7.6-21.3-18.8t-6.8-27.3a55.1,55.1,0,0,1,8.4-30,57.1,57.1,0,0,1,23.1-20.7,71.5,71.5,0,0,1,32.7-7.4,230.5,230.5,0,0,0,32.9-1.4,113.5,113.5,0,0,0,22-4.7q8.7-3,21.3-8.7ZM755.5,97.2q-9,10.3-9,27t9.2,27.3q9.2,10.3,25.9,10.3t26.1-10q9-10,9-28,0-37-35.7-37Q764.5,86.9,755.5,97.2Z"
          fill="#5b5b5b"/>
    <path d="M969.3,70.8A92.4,92.4,0,0,1,995.3,85l-12.3,18.3a100.9,100.9,0,0,0-21.7-10.7,67.1,67.1,0,0,0-21.7-3.5q-14.2,0-22.4,5.8a18.6,18.6,0,0,0-8.2,16q0,10.1,7.7,15.8t28,11.1q27.8,7,41.6,19t13.8,32.9q0,24.7-19.1,37.6t-46.6,13q-37.9,0-62.9-21.8l15.5-17.7q21.2,16.1,46.8,16.1,16.4,0,26.1-6.8a21.5,21.5,0,0,0,9.6-18.5q0-8.5-3.5-13.8t-12-9.2q-8.5-3.9-25-8.4-26.6-7-38.4-18.7t-11.9-29.7a39,39,0,0,1,7.7-23.6q7.7-10.6,21.5-16.4a78.1,78.1,0,0,1,30.8-5.8A92.8,92.8,0,0,1,969.3,70.8Z"
          fill="#5b5b5b"/>
</svg>
