<svg xmlns="http://www.w3.org/2000/svg" viewBox="0 0 1077.1 264.2"><title>logo_named</title><circle cx="127.6" cy="113.8" r="24.5" fill="#42ccb8"/><circle cx="127.6" cy="24.5" r="24.5" fill="#42ccb8"/><circle cx="127.6" cy="213.9" r="24.5" fill="#42ccb8"/><circle cx="24.5" cy="113.8" r="24.5" fill="#848484"/><circle cx="24.5" cy="24.5" r="24.5" fill="#42ccb8"/><circle cx="24.5" cy="213.9" r="24.5" fill="#848484"/><circle cx="230.7" cy="113.8" r="24.5" fill="#848484"/><circle cx="230.7" cy="24.5" r="24.5" fill="#42ccb8"/><circle cx="230.7" cy="213.9" r="24.5" fill="#848484"/><path d="M747.4,738.4l-1,5.7H691.8V915.5h-6V744.2H631.2v-5.7H747.4Z" transform="translate(-235.6 -702.5)"/><path d="M863.7,788.7q9.1,10.8,9.1,30.8v95.9H867V820.1q0-36.9-30.4-36.9-15.6,0-27.3,8.3t-22.1,24.2v99.8h-5.7V724.9l5.7-.8v83.7q20-29.9,49.4-29.9Q854.6,778,863.7,788.7Z" transform="translate(-235.6 -702.5)"/><path d="M1011.2,905.9a15.6,15.6,0,0,0,9.5,8.1l-1.6,4.2q-8.1-2.6-11.7-8.5t-3.9-17.8q-14.8,26.3-43.9,26.3-19,0-29.8-10.9T919,878.1q0-20.3,14.3-31.5t38.7-11.2h30.7V819.3q0-18.2-7.9-27.2t-26.7-9q-16.4,0-37.2,8.6l-1.8-4.9q21.3-8.8,39-8.8,21.1,0,30.7,10.3t9.6,30.5v68.1Q1008.5,900.2,1011.2,905.9Zm-25.9-.4q10.4-7.1,17.4-20.9V840.6H973.1q-22.6,0-35.2,9.6t-12.6,27.8q0,16.1,9.2,25.4t25.1,9.2Q974.9,912.6,985.3,905.5Z" transform="translate(-235.6 -702.5)"/><path d="M1152.1,788.6q9,10.7,9,30.9v95.9h-5.7V820.1q0-36.9-30.4-36.9-15.6,0-27.3,8.3t-22.1,24.2v99.8h-5.7V780.6h4.9l0.5,27.6Q1095.6,778,1125,778,1143.2,778,1152.1,788.6Z" transform="translate(-235.6 -702.5)"/><path d="M1312.7,778.7q-14,3.6-39.8,3.6,13,4.4,20,14.6t7,26q0,20-12.3,31.6t-33.7,11.6a54,54,0,0,1-19.2-3.6q-13.5,7.5-13.5,19.5a14.5,14.5,0,0,0,6.2,12.4q6.2,4.6,19.5,4.5h22.6q18.7,0,29.3,8.6t10.5,22.9q0,17.7-13.4,27t-40.4,9.4q-28.3,0-41.1-8.3t-12.7-27.8h5.7q0.3,11.4,5.1,18.2t15.1,9.6q10.3,2.9,28,2.9,48.1,0,48.1-30.7,0-12.2-9.1-19.2t-25.2-7h-22.9q-15.1,0-23.1-6t-8.1-15.6q0-13,14.8-22.4-22.6-11.7-22.6-38,0-20,12.5-32.2t33.5-12.2q26.5,0.3,36.9-1a114.2,114.2,0,0,0,20.3-4.4Zm-89,15.2q-10.5,10.8-10.5,28.5t11.7,28.3q11.7,10.1,29.1,10.1t29.4-10q10.7-10,10.7-28t-10.8-29.2q-10.8-10.5-29.5-10.5T1223.6,793.9Z" transform="translate(-235.6 -702.5)"/></svg>