<svg xmlns="http://www.w3.org/2000/svg" viewBox="0 0 1520 1520"><title>logo_icon</title><path d="M1000,240c-419.7,0-760,340.3-760,760s340.3,760,760,760,760-340.3,760-760S1419.7,240,1000,240Zm211.3,556H1036.8l-67.4,485.2c-2.1,20.4-3.1,33.6-3.1,39.7q0,38.3,17.6,55.8t54.4,17.6a180.3,180.3,0,0,0,54.4-8.4q26.8-8.4,62-25.3l46,98q-84.2,53.6-179.2,53.6-93.4,0-144-48.2T826.9,1327c0-21.4,1-37.5,3.1-48.8L897.4,796H758l15.3-109H918.8l50.5-186.9,110.3-12.2L1052.1,687H1242Z" transform="translate(-240 -240)" fill="#258484"/></svg>