<svg xmlns="http://www.w3.org/2000/svg" viewBox="0 0 1018.3 260.3"><title>logo_named</title><circle cx="102.9" cy="98.3" r="21.2" fill="#fa4659"/><circle cx="102.9" cy="21.2" r="21.2" fill="#fa4659"/><circle cx="102.9" cy="184.6" r="21.2" fill="#fa4659"/><circle cx="21.2" cy="98.3" r="21.2" fill="#11cbd7"/><circle cx="21.2" cy="21.2" r="21.2" fill="#fa4659"/><circle cx="21.2" cy="184.6" r="21.2" fill="#11cbd7"/><circle cx="184.6" cy="98.3" r="21.2" fill="#11cbd7"/><circle cx="184.6" cy="21.2" r="21.2" fill="#fa4659"/><circle cx="184.6" cy="184.6" r="21.2" fill="#11cbd7"/><path d="M663.4,744.3H605V725.8H741.8v18.5H683.6V914.4H663.4V744.3Z" transform="translate(-310.4 -716.9)" fill="#515151"/><path d="M765.4,718.9h20.2v73.8a105.5,105.5,0,0,1,23.7-12.4,74.4,74.4,0,0,1,26.5-5q20.8,0,31.4,12.8t10.6,33.1v93.3H857.6v-91q0-13.1-7.7-21.4t-20.8-8.3a69.2,69.2,0,0,0-21.9,3.2,122,122,0,0,0-21.7,10.1V914.4H765.4V718.9Z" transform="translate(-310.4 -716.9)" fill="#515151"/><path d="M917.7,906.8q-9.6-9.2-9.6-25.1v-9.7q0-16.7,10.9-26.4t31.9-9.7h46.4V818.9q0-13.8-7.6-20.5t-27.8-6.7H919.4v-12a297.6,297.6,0,0,1,50-4.1q24.9,0,36.5,10.1t11.7,32.2v96.6h-15.6L998,898.8q-1.8,1.5-11.1,5.9a146.7,146.7,0,0,1-21.4,7.8,82.7,82.7,0,0,1-22.8,3.5Q927.3,916,917.7,906.8Zm50.9-8.5q10-2.6,18.1-5.4l10.6-3.8V846l-41.8,1.8q-14.1.5-20.6,6.9t-6.5,17.4v6.1q0,11.8,6.8,17.2a25.8,25.8,0,0,0,16.5,5.4A70.1,70.1,0,0,0,968.6,898.3Z" transform="translate(-310.4 -716.9)" fill="#515151"/><path d="M1055.7,777.6h15.9l4.4,15.1a112.4,112.4,0,0,1,23.8-12.4,72.7,72.7,0,0,1,26.1-5q21.3,0,31.8,13.1t10.5,33.1v93H1148V823.7q0-13.3-7.6-21.7t-20.9-8.3a69.2,69.2,0,0,0-21.9,3.2,122,122,0,0,0-21.7,10.1V914.4h-20.2V777.6Z" transform="translate(-310.4 -716.9)" fill="#515151"/><path d="M1328.6,788.9l-30.8,2.6a53,53,0,0,1,8.6,6.8q3.5,3.5,6.2,10.5t2.7,17.8q0,17.9-11.5,29.7t-36.9,11.8h-21.8q-11.5,0-17.4,3.3t-5.9,11.3q0,5.6,4.2,8.5a17.8,17.8,0,0,0,10.1,2.8h45.4q23.8,0,35.5,9.2t11.7,28.4v5.6q0,19-12.9,29.5t-37.5,10.5h-38.2q-20.8,0-32.9-8.6t-12.2-25.2v-6.2q0-11.3,6.2-19.2a40.4,40.4,0,0,1,16.1-12.3,22.9,22.9,0,0,1-9.7-8.3,21.8,21.8,0,0,1-3.3-11.9q0-19.5,23.1-24.3-13.3-5.4-18.8-16a50.7,50.7,0,0,1-5.5-23.7q0-44.1,52.8-44.1h73v11.5Zm-85.1,121q-12.3,0-20.9,6t-8.6,18.1v5.6q0,22.8,30.5,22.8h31.8q15.9,0,24.5-6t8.6-18.3v-5.1q0-11-6.9-17t-23.6-6h-35.4Zm46.3-65.1q7-7.7,7-20.5,0-31-29.7-31h-14.6q-15.4,0-23.3,6.8t-7.9,22.4q0,30,28.2,30h15.4Q1282.7,852.4,1289.8,844.7Z" transform="translate(-310.4 -716.9)" fill="#515151"/></svg>