<svg xmlns="http://www.w3.org/2000/svg" viewBox="0 0 1051.5 245.1"><title>logo_named</title><circle cx="102.9" cy="98.3" r="21.2" fill="#fa4659"/><circle cx="102.9" cy="21.2" r="21.2" fill="#fa4659"/><circle cx="102.9" cy="184.6" r="21.2" fill="#fa4659"/><circle cx="21.2" cy="98.3" r="21.2" fill="#11cbd7"/><circle cx="21.2" cy="21.2" r="21.2" fill="#fa4659"/><circle cx="21.2" cy="184.6" r="21.2" fill="#11cbd7"/><circle cx="184.6" cy="98.3" r="21.2" fill="#11cbd7"/><circle cx="184.6" cy="21.2" r="21.2" fill="#fa4659"/><circle cx="184.6" cy="184.6" r="21.2" fill="#11cbd7"/><path d="M765.2,740.8a10.7,10.7,0,0,1-7.7,18.4H709.7V900a11.6,11.6,0,1,1-23.1,0V759.1H638.5a10.7,10.7,0,1,1,0-21.4h119A10.4,10.4,0,0,1,765.2,740.8Z" transform="translate(-310.4 -716.9)" fill="#333"/><path d="M879.7,795.4a47.1,47.1,0,0,1,19.1,19.5q6.9,12.8,6.9,30.8v54.7a11.3,11.3,0,1,1-22.7,0V845.7q0-18-9.7-27.3t-25.7-9.2a38,38,0,0,0-17,3.8,30.2,30.2,0,0,0-12,10.2,25.3,25.3,0,0,0-4.3,14.5v62.7a11.2,11.2,0,0,1-3.1,8.1,11.4,11.4,0,0,1-19.6-8.1V749.1a10.9,10.9,0,0,1,3.2-8.2,11.3,11.3,0,0,1,19.5,8.2v54.5a49.5,49.5,0,0,1,16.9-11,56.1,56.1,0,0,1,20.9-3.9A56.7,56.7,0,0,1,879.7,795.4Z" transform="translate(-310.4 -716.9)" fill="#333"/><path d="M1029.8,797.1a59.9,59.9,0,0,1,22,22.3,62.1,62.1,0,0,1,8.1,31.5v49.6a11.3,11.3,0,1,1-22.7,0v-8.2a56,56,0,0,1-72,12.2,56.2,56.2,0,0,1-20.5-22.1,66.4,66.4,0,0,1-7.5-31.5,62.7,62.7,0,0,1,8-31.5,58.5,58.5,0,0,1,22.1-22.3,61.6,61.6,0,0,1,31.3-8.1A60.4,60.4,0,0,1,1029.8,797.1ZM1018.9,887A38.5,38.5,0,0,0,1033,872a43.9,43.9,0,0,0,5.1-21.3,44.6,44.6,0,0,0-5.1-21.4,39.2,39.2,0,0,0-54.4-15,39.1,39.1,0,0,0-14.2,15,43.8,43.8,0,0,0-5.2,21.4,43.2,43.2,0,0,0,5.2,21.3A39.3,39.3,0,0,0,978.6,887,39.9,39.9,0,0,0,1018.9,887Z" transform="translate(-310.4 -716.9)" fill="#333"/><path d="M1181.9,795.4a47.1,47.1,0,0,1,19.1,19.5q6.9,12.8,6.9,30.8v54.7a11.4,11.4,0,1,1-22.7,0V845.7q0-18-9.7-27.3t-25.7-9.2a38,38,0,0,0-17,3.8,30.2,30.2,0,0,0-12,10.2,25.3,25.3,0,0,0-4.3,14.5v62.7a11.2,11.2,0,0,1-3.1,8.1,11.4,11.4,0,0,1-19.6-8.1V801.2a10.9,10.9,0,0,1,3.2-8.2,11.3,11.3,0,0,1,19.5,8.2v2.4a49.4,49.4,0,0,1,16.9-11,56.1,56.1,0,0,1,20.9-3.9A56.7,56.7,0,0,1,1181.9,795.4Z" transform="translate(-310.4 -716.9)" fill="#333"/><path d="M1332.2,796.8a56.8,56.8,0,0,1,21.8,21.9q7.9,14,7.9,32v48.1a66.5,66.5,0,0,1-7.8,32,57.9,57.9,0,0,1-21.9,22.8,61.6,61.6,0,0,1-31.9,8.3,70.5,70.5,0,0,1-29.8-6.3,62.3,62.3,0,0,1-23.1-18.1,10.1,10.1,0,0,1-2.4-6.2q0-4.7,4.7-8a11.4,11.4,0,0,1,6.2-2,11,11,0,0,1,9.1,4.7,39.1,39.1,0,0,0,15.1,11.9,49.8,49.8,0,0,0,20.7,4.1,38.4,38.4,0,0,0,19.8-5.2,37.7,37.7,0,0,0,14.2-15.4q5.3-10.1,5.3-24.1V886.4a51.5,51.5,0,0,1-18.2,19.1,48.3,48.3,0,0,1-25.6,6.9,55.7,55.7,0,0,1-29.5-7.9,54,54,0,0,1-20.2-21.9q-7.2-14-7.2-31.8t7.8-32a55.8,55.8,0,0,1,21.8-21.9q14-7.9,31.8-7.9A62.6,62.6,0,0,1,1332.2,796.8Zm-11.1,90.2a36.9,36.9,0,0,0,14-14.8,45.2,45.2,0,0,0,5-21.5,45.9,45.9,0,0,0-5-21.6,36.8,36.8,0,0,0-14-14.9,41.5,41.5,0,0,0-40.7,0,37.5,37.5,0,0,0-14.1,14.9,45,45,0,0,0-5.1,21.6,44.4,44.4,0,0,0,5.1,21.5,37.7,37.7,0,0,0,14.1,14.8A41.5,41.5,0,0,0,1321.1,887.1Z" transform="translate(-310.4 -716.9)" fill="#333"/></svg>